<svg width="32" height="32" viewBox="0 0 32 32" fill="none" xmlns="http://www.w3.org/2000/svg">
<rect width="32" height="32" fill="#5C0C69"/>
<path fill-rule="evenodd" clip-rule="evenodd" d="M4 4H28.1113V7.88858H26.5558V5.55543H5.55557V23.4429H22.1901V24.9983H4V4ZM27.3335 14.1103C27.9524 14.1103 28.5459 13.8645 28.9835 13.4269C29.4211 12.9894 29.6669 12.3959 29.6669 11.7772C29.6669 11.1584 29.4211 10.5649 28.9835 10.1274C28.5459 9.68982 27.9524 9.44401 27.3335 9.44401C26.7147 9.44401 26.1212 9.68982 25.6836 10.1274C25.246 10.5649 25.0002 11.1584 25.0002 11.7772C25.0002 12.3959 25.246 12.9894 25.6836 13.4269C26.1212 13.8645 26.7147 14.1103 27.3335 14.1103ZM28.9132 15.6735C29.9236 15.6735 30.7231 16.1277 31.2466 16.8292C31.7358 17.4864 31.9427 18.2991 31.9894 19.0496C32.0356 19.8194 31.9307 20.5909 31.6806 21.3205C31.4473 21.9971 31.0529 22.6971 30.4447 23.1769V30.8312C30.4453 31.1243 30.3355 31.4069 30.1371 31.6227C29.9388 31.8385 29.6665 31.9718 29.3744 31.996C29.0823 32.0202 28.7917 31.9336 28.5606 31.7533C28.3294 31.5731 28.1746 31.3125 28.1269 31.0233L27.1235 24.9983H26.8918L25.7578 31.0458C25.7039 31.3312 25.5455 31.5863 25.3135 31.7611C25.0816 31.936 24.7927 32.018 24.5035 31.9912C24.2143 31.9643 23.9454 31.8305 23.7496 31.616C23.5538 31.4015 23.445 31.1216 23.4446 30.8312V19.7355C23.2891 19.9724 23.1356 20.2107 22.9842 20.4502L22.9235 20.5459L22.908 20.5708L22.9041 20.5778C22.7992 20.7461 22.6532 20.8849 22.4799 20.9811C22.3065 21.0773 22.1115 21.1277 21.9132 21.1276H18.0242C17.7148 21.1276 17.4181 21.0047 17.1993 20.7859C16.9805 20.5672 16.8576 20.2704 16.8576 19.9611C16.8576 19.6517 16.9805 19.3549 17.1993 19.1362C17.4181 18.9174 17.7148 18.7945 18.0242 18.7945H21.273C21.462 18.5021 21.7109 18.1225 21.9723 17.7415C22.2445 17.344 22.5447 16.9233 22.8123 16.5935C22.9422 16.4326 23.0876 16.2646 23.2338 16.1269C23.3054 16.0593 23.405 15.9714 23.5263 15.8936C23.74 15.7523 23.9903 15.6761 24.2465 15.6743L28.9132 15.6735Z" fill="#FFFFF0"/>
</svg>
