<svg width="30" height="30" viewBox="0 0 30 30" fill="none" xmlns="http://www.w3.org/2000/svg">
<path d="M23.86 6.19396C23.8513 6.18396 23.8475 6.17021 23.8388 6.16146C23.83 6.15271 23.8163 6.14896 23.8063 6.13896C21.468 3.80855 18.3013 2.5 15 2.5C11.6987 2.5 8.53205 3.80855 6.19376 6.13896C6.18376 6.14896 6.17126 6.15146 6.16126 6.16146C6.15126 6.17146 6.14876 6.18396 6.14001 6.19396C4.39785 7.94449 3.21329 10.1719 2.73582 12.595C2.25836 15.0181 2.5094 17.5284 3.45725 19.809C4.40511 22.0895 6.00729 24.0382 8.06161 25.4091C10.1159 26.78 12.5303 27.5116 15 27.5116C17.4697 27.5116 19.8841 26.78 21.9384 25.4091C23.9927 24.0382 25.5949 22.0895 26.5428 19.809C27.4906 17.5284 27.7416 15.0181 27.2642 12.595C26.7867 10.1719 25.6022 7.94449 23.86 6.19396ZM15 25.0002C13.5029 24.9992 12.0252 24.6617 10.6762 24.0126C9.3271 23.3635 8.14123 22.4194 7.20626 21.2502H12.225C12.5727 21.6432 12.9998 21.9579 13.4782 22.1734C13.9566 22.3889 14.4753 22.5003 15 22.5003C15.5247 22.5003 16.0434 22.3889 16.5218 22.1734C17.0002 21.9579 17.4274 21.6432 17.775 21.2502H22.7938C21.8588 22.4194 20.6729 23.3635 19.3239 24.0126C17.9748 24.6617 16.4971 24.9992 15 25.0002ZM13.75 18.7502C13.75 18.503 13.8233 18.2613 13.9607 18.0557C14.098 17.8502 14.2932 17.69 14.5217 17.5954C14.7501 17.5008 15.0014 17.476 15.2439 17.5242C15.4863 17.5725 15.7091 17.6915 15.8839 17.8663C16.0587 18.0411 16.1778 18.2639 16.226 18.5063C16.2742 18.7488 16.2495 19.0002 16.1549 19.2286C16.0602 19.457 15.9 19.6522 15.6945 19.7895C15.4889 19.9269 15.2472 20.0002 15 20.0002C14.6685 20.0002 14.3505 19.8685 14.1161 19.6341C13.8817 19.3997 13.75 19.0817 13.75 18.7502ZM24.2625 18.7527L24.25 18.7502H18.75C18.7477 17.9772 18.5062 17.2238 18.0585 16.5935C17.6109 15.9633 16.9791 15.487 16.25 15.2302V11.2502C16.25 10.9187 16.1183 10.6007 15.8839 10.3663C15.6495 10.1319 15.3315 10.0002 15 10.0002C14.6685 10.0002 14.3505 10.1319 14.1161 10.3663C13.8817 10.6007 13.75 10.9187 13.75 11.2502V15.2302C13.0209 15.487 12.3891 15.9633 11.9415 16.5935C11.4938 17.2238 11.2523 17.9772 11.25 18.7502H5.75001L5.73751 18.7527C5.41346 17.9502 5.19497 17.109 5.08751 16.2502H6.25001C6.58153 16.2502 6.89947 16.1185 7.13389 15.8841C7.36831 15.6497 7.50001 15.3317 7.50001 15.0002C7.50001 14.6687 7.36831 14.3507 7.13389 14.1163C6.89947 13.8819 6.58153 13.7502 6.25001 13.7502H5.08751C5.31074 11.9734 6.00996 10.2899 7.11126 8.87771L7.92876 9.69646C8.04406 9.81585 8.182 9.91108 8.3345 9.97659C8.48701 10.0421 8.65103 10.0766 8.817 10.078C8.98298 10.0795 9.14758 10.0478 9.3012 9.98499C9.45482 9.92214 9.59438 9.82932 9.71175 9.71195C9.82912 9.59459 9.92193 9.45502 9.98478 9.3014C10.0476 9.14778 10.0793 8.98318 10.0778 8.81721C10.0764 8.65124 10.0419 8.48721 9.97638 8.33471C9.91087 8.1822 9.81564 8.04427 9.69626 7.92896L8.87876 7.11021C10.2907 6.00957 11.9737 5.31079 13.75 5.08771V6.25021C13.75 6.58173 13.8817 6.89967 14.1161 7.13409C14.3505 7.36851 14.6685 7.50021 15 7.50021C15.3315 7.50021 15.6495 7.36851 15.8839 7.13409C16.1183 6.89967 16.25 6.58173 16.25 6.25021V5.08771C18.0263 5.31079 19.7093 6.00957 21.1213 7.11021L20.3038 7.92896C20.1844 8.04427 20.0891 8.1822 20.0236 8.33471C19.9581 8.48721 19.9236 8.65124 19.9222 8.81721C19.9208 8.98318 19.9524 9.14778 20.0152 9.3014C20.0781 9.45502 20.1709 9.59459 20.2883 9.71195C20.4056 9.82932 20.5452 9.92214 20.6988 9.98499C20.8524 10.0478 21.017 10.0795 21.183 10.078C21.349 10.0766 21.513 10.0421 21.6655 9.97659C21.818 9.91108 21.9559 9.81585 22.0713 9.69646L22.8888 8.87771C23.9905 10.2897 24.6902 11.9732 24.9138 13.7502H23.75C23.4185 13.7502 23.1005 13.8819 22.8661 14.1163C22.6317 14.3507 22.5 14.6687 22.5 15.0002C22.5 15.3317 22.6317 15.6497 22.8661 15.8841C23.1005 16.1185 23.4185 16.2502 23.75 16.2502H24.9125C24.805 17.109 24.5866 17.9502 24.2625 18.7527Z" fill="black"/>
</svg>
